                                                                        S      1
,,12Hsimpal model,12Hsimpal model,7Hunknown,7Hunknown,32,38,7,99,15,,1.,G      1
2,2HMM,1,0.08,15H20220312.133233,0.01,10000.,7Hunknown,7Hunknown,11,0,  G      2
15H20220312.073800;                                                     G      3
     186       1                                                00000000D      1
     186            -199       1       0                               0D      2
     514       2                                                00010000D      3
     514                       2       1                               0D      4
     510       4                                                00010000D      5
     510            -199       1       1                               0D      6
     510       5                                                00010000D      7
     510            -199       1       1                               0D      8
     510       6                                                00010000D      9
     510            -199       1       1                               0D     10
     510       7                                                00010000D     11
     510            -199       1       1                               0D     12
     510       8                                                00010000D     13
     510            -199       1       1                               0D     14
     510       9                                                00010000D     15
     510            -199       1       1                               0D     16
     510      10                                                00010000D     17
     510            -199       1       1                               0D     18
     510      11                                                00010000D     19
     510            -199       1       1                               0D     20
     510      12                                                00010000D     21
     510            -199       1       1                               0D     22
     510      13                                                00010000D     23
     510            -199       1       1                               0D     24
     510      14                                                00010000D     25
     510            -199       1       1                               0D     26
     510      15                                                00010000D     27
     510            -199       1       1                               0D     28
     510      16                                                00010000D     29
     510            -199       1       1                               0D     30
     510      17                                                00010000D     31
     510            -199       1       1                               0D     32
     508      18                                                00010000D     33
     508                       1       1                               0D     34
     508      19                                                00010000D     35
     508                       1       1                               0D     36
     508      20                                                00010000D     37
     508                       1       1                               0D     38
     508      21                                                00010000D     39
     508                       1       1                               0D     40
     508      22                                                00010000D     41
     508                       1       1                               0D     42
     508      23                                                00010000D     43
     508                       1       1                               0D     44
     508      24                                                00010000D     45
     508                       1       1                               0D     46
     508      25                                                00010000D     47
     508                       1       1                               0D     48
     508      26                                                00010000D     49
     508                       1       1                               0D     50
     508      27                                                00010000D     51
     508                       1       1                               0D     52
     508      28                                                00010000D     53
     508                       1       1                               0D     54
     508      29                                                00010000D     55
     508                       1       1                               0D     56
     508      30                                                00010000D     57
     508                       1       1                               0D     58
     508      31                                                00010000D     59
     508                       1       1                               0D     60
     508      32                                                00010000D     61
     508                       1       1                               0D     62
     508      33                                                00010000D     63
     508                       1       1                               0D     64
     508      34                                                00010000D     65
     508                       1       1                               0D     66
     508      35                                                00010000D     67
     508                       1       1                               0D     68
     508      36                                                00010000D     69
     508                       1       1                               0D     70
     508      37                                                00010000D     71
     508                       1       1                               0D     72
     508      38                                                00010000D     73
     508                       1       1                               0D     74
     508      39                                                00010000D     75
     508                       1       1                               0D     76
     508      40                                                00010000D     77
     508                       1       1                               0D     78
     508      41                                                00010000D     79
     508                       1       1                               0D     80
     508      42                                                00010000D     81
     508                       1       1                               0D     82
     508      43                                                00010000D     83
     508                       1       1                               0D     84
     508      44                                                00010000D     85
     508                       1       1                               0D     86
     508      45                                                00010000D     87
     508                       1       1                               0D     88
     508      46                                                00010000D     89
     508                       1       1                               0D     90
     508      47                                                00010000D     91
     508                       1       1                               0D     92
     126      48                                                00010000D     93
     126       0               8       0                               0D     94
     126      56                                                00010000D     95
     126       0               2       0                               0D     96
     126      58                                                00010000D     97
     126       0               8       0                               0D     98
     126      66                                                00010000D     99
     126       0               8       0                               0D    100
     126      74                                                00010000D    101
     126       0               2       0                               0D    102
     126      76                                                00010000D    103
     126       0               8       0                               0D    104
     126      84                                                00010000D    105
     126       0               8       0                               0D    106
     126      92                                                00010000D    107
     126       0               2       0                               0D    108
     126      94                                                00010000D    109
     126       0               8       0                               0D    110
     126     102                                                00010000D    111
     126       0               8       0                               0D    112
     126     110                                                00010000D    113
     126       0               2       0                               0D    114
     126     112                                                00010000D    115
     126       0               8       0                               0D    116
     126     120                                                00010000D    117
     126       0               8       0                               0D    118
     126     128                                                00010000D    119
     126       0               2       0                               0D    120
     126     130                                                00010000D    121
     126       0               8       0                               0D    122
     126     138                                                00010000D    123
     126       0               8       0                               0D    124
     126     146                                                00010000D    125
     126       0               2       0                               0D    126
     126     148                                                00010000D    127
     126       0               8       0                               0D    128
     126     156                                                00010000D    129
     126       0               8       0                               0D    130
     126     164                                                00010000D    131
     126       0               2       0                               0D    132
     126     166                                                00010000D    133
     126       0               8       0                               0D    134
     126     174                                                00010000D    135
     126       0               8       0                               0D    136
     126     182                                                00010000D    137
     126       0               2       0                               0D    138
     126     184                                                00010000D    139
     126       0               8       0                               0D    140
     126     192                                                00010000D    141
     126       0               2       0                               0D    142
     126     194                                                00010000D    143
     126       0               2       0                               0D    144
     126     196                                                00010000D    145
     126       0               2       0                               0D    146
     126     198                                                00010000D    147
     126       0               2       0                               0D    148
     126     200                                                00010000D    149
     126       0               2       0                               0D    150
     126     202                                                00010000D    151
     126       0               2       0                               0D    152
     126     204                                                00010000D    153
     126       0               2       0                               0D    154
     126     206                                                00010000D    155
     126       0               2       0                               0D    156
     126     208                                                00010000D    157
     126       0               2       0                               0D    158
     126     210                                                00010000D    159
     126       0               2       0                               0D    160
     126     212                                                00010000D    161
     126       0               2       0                               0D    162
     126     214                                                00010000D    163
     126       0               2       0                               0D    164
     128     216                                                00010000D    165
     128       0    -199      12       0                               0D    166
     128     228                                                00010000D    167
     128       0    -199      12       0                               0D    168
     128     240                                                00010000D    169
     128       0    -199      12       0                               0D    170
     128     252                                                00010000D    171
     128       0    -199      12       0                               0D    172
     128     264                                                00010000D    173
     128       0    -199      12       0                               0D    174
     128     276                                                00010000D    175
     128       0    -199      12       0                               0D    176
     128     288                                                00010000D    177
     128       0    -199      12       0                               0D    178
     128     300                                                00010000D    179
     128       0    -199      12       0                               0D    180
     128     312                                                00010000D    181
     128       0    -199       4       0                               0D    182
     128     316                                                00010000D    183
     128       0    -199       3       0                               0D    184
     128     319                                                00010000D    185
     128       0    -199       4       0                               0D    186
     128     323                                                00010000D    187
     128       0    -199       3       0                               0D    188
     128     326                                                00010000D    189
     128       0    -199       3       0                               0D    190
     128     329                                                00010000D    191
     128       0    -199       4       0                               0D    192
     502     333                                                00010000D    193
     502                       6       1                               0D    194
     504     339                                                00010001D    195
     504                      10       1                               0D    196
     406     349                                                00000000D    197
     406                       1      15                               0D    198
     314     350                                                00000200D    199
     314                       2       0                               0D    200
186,3,1,0,0,1,197;                                                     1P      1
514,14,5,1,7,1,9,1,11,1,13,1,15,1,17,1,19,1,21,1,23,1,25,1,27,1,       3P      2
29,1,31,1;                                                             3P      3
510,165,1,1,33;                                                        5P      4
510,167,1,1,35;                                                        7P      5
510,169,1,1,37;                                                        9P      6
510,171,1,1,39;                                                       11P      7
510,173,1,1,41;                                                       13P      8
510,175,1,1,43;                                                       15P      9
510,177,1,1,45;                                                       17P     10
510,179,1,1,47;                                                       19P     11
510,181,9,1,49,51,53,55,57,59,61,63,65;                               21P     12
510,183,1,1,67;                                                       23P     13
510,185,9,1,69,71,73,75,77,79,81,83,85;                               25P     14
510,187,1,1,87;                                                       27P     15
510,189,1,1,89;                                                       29P     16
510,191,1,1,91;                                                       31P     17
508,4,0,195,1,0,0,0,195,2,1,0,0,195,3,0,0,0,195,2,0,0;                33P     18
508,4,0,195,4,0,0,0,195,5,1,0,0,195,6,0,0,0,195,5,0,0;                35P     19
508,4,0,195,7,0,0,0,195,8,1,0,0,195,9,0,0,0,195,8,0,0;                37P     20
508,4,0,195,10,0,0,0,195,11,1,0,0,195,12,0,0,0,195,11,0,0;            39P     21
508,4,0,195,13,0,0,0,195,14,1,0,0,195,15,0,0,0,195,14,0,0;            41P     22
508,4,0,195,16,0,0,0,195,17,1,0,0,195,18,0,0,0,195,17,0,0;            43P     23
508,4,0,195,19,0,0,0,195,20,1,0,0,195,21,0,0,0,195,20,0,0;            45P     24
508,4,0,195,22,0,0,0,195,23,1,0,0,195,24,0,0,0,195,23,0,0;            47P     25
508,4,0,195,25,0,0,0,195,26,1,0,0,195,27,0,0,0,195,28,0,0;            49P     26
508,1,0,195,1,1,0;                                                    51P     27
508,1,0,195,4,1,0;                                                    53P     28
508,1,0,195,7,1,0;                                                    55P     29
508,1,0,195,10,1,0;                                                   57P     30
508,1,0,195,13,1,0;                                                   59P     31
508,1,0,195,16,1,0;                                                   61P     32
508,1,0,195,19,1,0;                                                   63P     33
508,1,0,195,22,1,0;                                                   65P     34
508,4,0,195,29,0,0,0,195,28,1,0,0,195,30,0,0,0,195,31,0,0;            67P     35
508,4,0,195,32,0,0,0,195,31,1,0,0,195,33,0,0,0,195,34,0,0;            69P     36
508,1,0,195,3,1,0;                                                    71P     37
508,1,0,195,6,1,0;                                                    73P     38
508,1,0,195,9,1,0;                                                    75P     39
508,1,0,195,12,1,0;                                                   77P     40
508,1,0,195,15,1,0;                                                   79P     41
508,1,0,195,18,1,0;                                                   81P     42
508,1,0,195,21,1,0;                                                   83P     43
508,1,0,195,24,1,0;                                                   85P     44
508,4,0,195,35,0,0,0,195,34,1,0,0,195,36,0,0,0,195,26,0,0;            87P     45
508,4,0,195,35,1,0,0,195,25,1,0,0,195,29,1,0,0,195,32,1,0;            89P     46
508,4,0,195,36,1,0,0,195,33,1,0,0,195,30,1,0,0,195,27,1,0;            91P     47
126,8,2,0,1,0,0,-3.14159265358979,-3.14159265358979,                  93P     48
-3.14159265358979,-1.5707963267949,-1.5707963267949,0.,0.,            93P     49
1.5707963267949,1.5707963267949,3.14159265358979,                     93P     50
3.14159265358979,3.14159265358979,1.,0.707106781186549,1.,            93P     51
0.707106781186549,1.,0.707106781186549,1.,0.707106781186549,1.,       93P     52
69.,-5.,-140.,69.,-5.,-149.,60.,-5.,-149.,51.,-5.,-149.,51.,-5.,      93P     53
-140.,51.,-5.,-131.,60.,-5.,-131.,69.,-5.,-131.,69.,-5.,-140.,        93P     54
-3.14159265358979,3.14159265358979,0.,0.,0.;                          93P     55
126,1,1,0,0,1,0,-7.77777777777778,-7.77777777777778,0.,0.,1.,1.,      95P     56
69.,-5.,-140.,69.,65.,-140.,-7.77777777777778,0.,0.,0.,0.;            95P     57
126,8,2,0,1,0,0,-3.14159265358979,-3.14159265358979,                  97P     58
-3.14159265358979,-1.5707963267949,-1.5707963267949,0.,0.,            97P     59
1.5707963267949,1.5707963267949,3.14159265358979,                     97P     60
3.14159265358979,3.14159265358979,1.,0.707106781186549,1.,            97P     61
0.707106781186549,1.,0.707106781186549,1.,0.707106781186549,1.,       97P     62
69.,65.,-140.,69.,65.,-131.,60.,65.,-131.,51.,65.,-131.,51.,65.,      97P     63
-140.,51.,65.,-149.,60.,65.,-149.,69.,65.,-149.,69.,65.,-140.,        97P     64
-3.14159265358979,3.14159265358979,0.,0.,0.;                          97P     65
126,8,2,0,1,0,0,-3.14159265358979,-3.14159265358979,                  99P     66
-3.14159265358979,-1.5707963267949,-1.5707963267949,0.,0.,            99P     67
1.5707963267949,1.5707963267949,3.14159265358979,                     99P     68
3.14159265358979,3.14159265358979,1.,0.707106781186547,1.,            99P     69
0.707106781186549,1.,0.707106781186549,1.,0.707106781186547,1.,       99P     70
29.,-5.,-100.,29.,-5.,-109.,20.,-5.,-109.,11.,-5.,-109.,11.,-5.,      99P     71
-100.,11.,-5.,-91.,20.,-5.,-91.,29.,-5.,-91.,29.,-5.,-100.,           99P     72
-3.14159265358979,3.14159265358979,0.,0.,0.;                          99P     73
126,1,1,0,0,1,0,-7.77777777777778,-7.77777777777778,0.,0.,1.,1.,     101P     74
29.,-5.,-100.,29.,65.,-100.,-7.77777777777778,0.,0.,0.,0.;           101P     75
126,8,2,0,1,0,0,-3.14159265358979,-3.14159265358979,                 103P     76
-3.14159265358979,-1.5707963267949,-1.5707963267949,0.,0.,           103P     77
1.5707963267949,1.5707963267949,3.14159265358979,                    103P     78
3.14159265358979,3.14159265358979,1.,0.707106781186547,1.,           103P     79
0.707106781186549,1.,0.707106781186549,1.,0.707106781186547,1.,      103P     80
29.,65.,-100.,29.,65.,-91.,20.,65.,-91.,11.,65.,-91.,11.,65.,        103P     81
-100.,11.,65.,-109.,20.,65.,-109.,29.,65.,-109.,29.,65.,-100.,       103P     82
-3.14159265358979,3.14159265358979,0.,0.,0.;                         103P     83
126,8,2,0,1,0,0,-3.14159265358979,-3.14159265358979,                 105P     84
-3.14159265358979,-1.5707963267949,-1.5707963267949,0.,0.,           105P     85
1.5707963267949,1.5707963267949,3.14159265358979,                    105P     86
3.14159265358979,3.14159265358979,1.,0.707106781186547,1.,           105P     87
0.707106781186548,1.,0.707106781186548,1.,0.707106781186546,1.,      105P     88
29.,-5.,-20.,29.,-5.,-29.,20.,-5.,-29.,11.,-5.,-29.,11.,-5.,         105P     89
-20.,11.,-5.,-11.,20.,-5.,-11.,29.,-5.,-11.,29.,-5.,-20.,            105P     90
-3.14159265358979,3.14159265358979,0.,0.,0.;                         105P     91
126,1,1,0,0,1,0,-7.77777777777778,-7.77777777777778,0.,0.,1.,1.,     107P     92
29.,-5.,-20.,29.,65.,-20.,-7.77777777777778,0.,0.,0.,0.;             107P     93
126,8,2,0,1,0,0,-3.14159265358979,-3.14159265358979,                 109P     94
-3.14159265358979,-1.5707963267949,-1.5707963267949,0.,0.,           109P     95
1.5707963267949,1.5707963267949,3.14159265358979,                    109P     96
3.14159265358979,3.14159265358979,1.,0.707106781186546,1.,           109P     97
0.707106781186548,1.,0.707106781186548,1.,0.707106781186547,1.,      109P     98
29.,65.,-20.,29.,65.,-11.,20.,65.,-11.,11.,65.,-11.,11.,65.,         109P     99
-20.,11.,65.,-29.,20.,65.,-29.,29.,65.,-29.,29.,65.,-20.,            109P    100
-3.14159265358979,3.14159265358979,0.,0.,0.;                         109P    101
126,8,2,0,1,0,0,-3.14159265358979,-3.14159265358979,                 111P    102
-3.14159265358979,-1.5707963267949,-1.5707963267949,0.,0.,           111P    103
1.5707963267949,1.5707963267949,3.14159265358979,                    111P    104
3.14159265358979,3.14159265358979,1.,0.707106781186547,1.,           111P    105
0.707106781186549,1.,0.707106781186549,1.,0.707106781186547,1.,      111P    106
29.,-5.,-140.,29.,-5.,-149.,20.,-5.,-149.,11.,-5.,-149.,11.,-5.,     111P    107
-140.,11.,-5.,-131.,20.,-5.,-131.,29.,-5.,-131.,29.,-5.,-140.,       111P    108
-3.14159265358979,3.14159265358979,0.,0.,0.;                         111P    109
126,1,1,0,0,1,0,-7.77777777777778,-7.77777777777778,0.,0.,1.,1.,     113P    110
29.,-5.,-140.,29.,65.,-140.,-7.77777777777778,0.,0.,0.,0.;           113P    111
126,8,2,0,1,0,0,-3.14159265358979,-3.14159265358979,                 115P    112
-3.14159265358979,-1.5707963267949,-1.5707963267949,0.,0.,           115P    113
1.5707963267949,1.5707963267949,3.14159265358979,                    115P    114
3.14159265358979,3.14159265358979,1.,0.707106781186547,1.,           115P    115
0.707106781186549,1.,0.707106781186549,1.,0.707106781186547,1.,      115P    116
29.,65.,-140.,29.,65.,-131.,20.,65.,-131.,11.,65.,-131.,11.,65.,     115P    117
-140.,11.,65.,-149.,20.,65.,-149.,29.,65.,-149.,29.,65.,-140.,       115P    118
-3.14159265358979,3.14159265358979,0.,0.,0.;                         115P    119
126,8,2,0,1,0,0,-3.14159265358979,-3.14159265358979,                 117P    120
-3.14159265358979,-1.5707963267949,-1.5707963267949,0.,0.,           117P    121
1.5707963267949,1.5707963267949,3.14159265358979,                    117P    122
3.14159265358979,3.14159265358979,1.,0.707106781186549,1.,           117P    123
0.707106781186549,1.,0.707106781186549,1.,0.707106781186549,1.,      117P    124
69.,-5.,-60.,69.,-5.,-69.,60.,-5.,-69.,51.,-5.,-69.,51.,-5.,         117P    125
-60.,51.,-5.,-51.,60.,-5.,-51.,69.,-5.,-51.,69.,-5.,-60.,            117P    126
-3.14159265358979,3.14159265358979,0.,0.,0.;                         117P    127
126,1,1,0,0,1,0,-7.77777777777778,-7.77777777777778,0.,0.,1.,1.,     119P    128
69.,-5.,-60.,69.,65.,-60.,-7.77777777777778,0.,0.,0.,0.;             119P    129
126,8,2,0,1,0,0,-3.14159265358979,-3.14159265358979,                 121P    130
-3.14159265358979,-1.5707963267949,-1.5707963267949,0.,0.,           121P    131
1.5707963267949,1.5707963267949,3.14159265358979,                    121P    132
3.14159265358979,3.14159265358979,1.,0.707106781186549,1.,           121P    133
0.707106781186549,1.,0.707106781186549,1.,0.707106781186549,1.,      121P    134
69.,65.,-60.,69.,65.,-51.,60.,65.,-51.,51.,65.,-51.,51.,65.,         121P    135
-60.,51.,65.,-69.,60.,65.,-69.,69.,65.,-69.,69.,65.,-60.,            121P    136
-3.14159265358979,3.14159265358979,0.,0.,0.;                         121P    137
126,8,2,0,1,0,0,-3.14159265358979,-3.14159265358979,                 123P    138
-3.14159265358979,-1.5707963267949,-1.5707963267949,0.,0.,           123P    139
1.5707963267949,1.5707963267949,3.14159265358979,                    123P    140
3.14159265358979,3.14159265358979,1.,0.707106781186544,1.,           123P    141
0.707106781186546,1.,0.707106781186546,1.,0.707106781186544,1.,      123P    142
29.,-5.,-60.,29.,-5.,-69.,20.,-5.,-69.,11.,-5.,-69.,11.,-5.,         123P    143
-60.,11.,-5.,-51.,20.,-5.,-51.,29.,-5.,-51.,29.,-5.,-60.,            123P    144
-3.14159265358979,3.14159265358979,0.,0.,0.;                         123P    145
126,1,1,0,0,1,0,-7.77777777777778,-7.77777777777778,0.,0.,1.,1.,     125P    146
29.,-5.,-60.,29.,65.,-60.,-7.77777777777778,0.,0.,0.,0.;             125P    147
126,8,2,0,1,0,0,-3.14159265358979,-3.14159265358979,                 127P    148
-3.14159265358979,-1.5707963267949,-1.5707963267949,0.,0.,           127P    149
1.5707963267949,1.5707963267949,3.14159265358979,                    127P    150
3.14159265358979,3.14159265358979,1.,0.707106781186544,1.,           127P    151
0.707106781186546,1.,0.707106781186546,1.,0.707106781186544,1.,      127P    152
29.,65.,-60.,29.,65.,-51.,20.,65.,-51.,11.,65.,-51.,11.,65.,         127P    153
-60.,11.,65.,-69.,20.,65.,-69.,29.,65.,-69.,29.,65.,-60.,            127P    154
-3.14159265358979,3.14159265358979,0.,0.,0.;                         127P    155
126,8,2,0,1,0,0,-3.14159265358979,-3.14159265358979,                 129P    156
-3.14159265358979,-1.5707963267949,-1.5707963267949,0.,0.,           129P    157
1.5707963267949,1.5707963267949,3.14159265358979,                    129P    158
3.14159265358979,3.14159265358979,1.,0.707106781186548,1.,           129P    159
0.707106781186548,1.,0.707106781186549,1.,0.707106781186549,1.,      129P    160
69.,-5.,-20.,69.,-5.,-29.,60.,-5.,-29.,51.,-5.,-29.,51.,-5.,         129P    161
-20.,51.,-5.,-11.,60.,-5.,-11.,69.,-5.,-11.,69.,-5.,-20.,            129P    162
-3.14159265358979,3.14159265358979,0.,0.,0.;                         129P    163
126,1,1,0,0,1,0,-7.77777777777778,-7.77777777777778,0.,0.,1.,1.,     131P    164
69.,-5.,-20.,69.,65.,-20.,-7.77777777777778,0.,0.,0.,0.;             131P    165
126,8,2,0,1,0,0,-3.14159265358979,-3.14159265358979,                 133P    166
-3.14159265358979,-1.5707963267949,-1.5707963267949,0.,0.,           133P    167
1.5707963267949,1.5707963267949,3.14159265358979,                    133P    168
3.14159265358979,3.14159265358979,1.,0.707106781186549,1.,           133P    169
0.707106781186549,1.,0.707106781186548,1.,0.707106781186548,1.,      133P    170
69.,65.,-20.,69.,65.,-11.,60.,65.,-11.,51.,65.,-11.,51.,65.,         133P    171
-20.,51.,65.,-29.,60.,65.,-29.,69.,65.,-29.,69.,65.,-20.,            133P    172
-3.14159265358979,3.14159265358979,0.,0.,0.;                         133P    173
126,8,2,0,1,0,0,-3.14159265358979,-3.14159265358979,                 135P    174
-3.14159265358979,-1.5707963267949,-1.5707963267949,0.,0.,           135P    175
1.5707963267949,1.5707963267949,3.14159265358979,                    135P    176
3.14159265358979,3.14159265358979,1.,0.707106781186549,1.,           135P    177
0.707106781186549,1.,0.707106781186549,1.,0.707106781186549,1.,      135P    178
69.,-5.,-100.,69.,-5.,-109.,60.,-5.,-109.,51.,-5.,-109.,51.,-5.,     135P    179
-100.,51.,-5.,-91.,60.,-5.,-91.,69.,-5.,-91.,69.,-5.,-100.,          135P    180
-3.14159265358979,3.14159265358979,0.,0.,0.;                         135P    181
126,1,1,0,0,1,0,-7.77777777777778,-7.77777777777778,0.,0.,1.,1.,     137P    182
69.,-5.,-100.,69.,65.,-100.,-7.77777777777778,0.,0.,0.,0.;           137P    183
126,8,2,0,1,0,0,-3.14159265358979,-3.14159265358979,                 139P    184
-3.14159265358979,-1.5707963267949,-1.5707963267949,0.,0.,           139P    185
1.5707963267949,1.5707963267949,3.14159265358979,                    139P    186
3.14159265358979,3.14159265358979,1.,0.707106781186549,1.,           139P    187
0.707106781186549,1.,0.707106781186549,1.,0.707106781186549,1.,      139P    188
69.,65.,-100.,69.,65.,-91.,60.,65.,-91.,51.,65.,-91.,51.,65.,        139P    189
-100.,51.,65.,-109.,60.,65.,-109.,69.,65.,-109.,69.,65.,-100.,       139P    190
-3.14159265358979,3.14159265358979,0.,0.,0.;                         139P    191
126,1,1,0,0,1,0,0.,0.,8.4,8.4,1.,1.,-2.,-5.,0.,82.,-5.,0.,0.,        141P    192
8.4,0.,0.,0.;                                                        141P    193
126,1,1,0,0,1,0,0.,0.,16.,16.,1.,1.,-2.,-5.,0.,-2.,-5.,-160.,0.,     143P    194
16.,0.,0.,0.;                                                        143P    195
126,1,1,0,0,1,0,-8.4,-8.4,0.,0.,1.,1.,82.,-5.,-160.,-2.,-5.,         145P    196
-160.,-8.4,0.,0.,0.,0.;                                              145P    197
126,1,1,0,0,1,0,0.,0.,16.,16.,1.,1.,82.,-5.,0.,82.,-5.,-160.,0.,     147P    198
16.,0.,0.,0.;                                                        147P    199
126,1,1,0,0,1,0,0.,0.,7.,7.,1.,1.,82.,-5.,0.,82.,65.,0.,0.,7.,       149P    200
0.,0.,0.;                                                            149P    201
126,1,1,0,0,1,0,-7.,-7.,0.,0.,1.,1.,82.,65.,-160.,82.,-5.,-160.,     151P    202
-7.,0.,0.,0.,0.;                                                     151P    203
126,1,1,0,0,1,0,0.,0.,16.,16.,1.,1.,82.,65.,0.,82.,65.,-160.,0.,     153P    204
16.,0.,0.,0.;                                                        153P    205
126,1,1,0,0,1,0,0.,0.,8.4,8.4,1.,1.,82.,65.,0.,                      155P    206
-1.99999999999999,65.,0.,0.,8.4,0.,0.,0.;                            155P    207
126,1,1,0,0,1,0,-8.4,-8.4,0.,0.,1.,1.,-1.99999999999999,65.,         157P    208
-160.,82.,65.,-160.,-8.4,0.,0.,0.,0.;                                157P    209
126,1,1,0,0,1,0,0.,0.,16.,16.,1.,1.,-2.,65.,0.,-2.,65.,-160.,0.,     159P    210
16.,0.,0.,0.;                                                        159P    211
126,1,1,0,0,1,0,0.,0.,7.,7.,1.,1.,-2.,65.,0.,-2.,-5.,0.,0.,7.,       161P    212
0.,0.,0.;                                                            161P    213
126,1,1,0,0,1,0,-7.,-7.,0.,0.,1.,1.,-2.,-5.,-160.,-2.,65.,-160.,     163P    214
-7.,0.,0.,0.,0.;                                                     163P    215
128,1,8,1,2,0,1,0,0,1,0.,0.,7.77777777777778,7.77777777777778,       165P    216
-3.14159265358979,-3.14159265358979,-3.14159265358979,               165P    217
-1.5707963267949,-1.5707963267949,0.,0.,1.5707963267949,             165P    218
1.5707963267949,3.14159265358979,3.14159265358979,                   165P    219
3.14159265358979,1.,1.,0.707106781186548,0.707106781186548,1.,       165P    220
1.,0.707106781186548,0.707106781186548,1.,1.,0.707106781186548,      165P    221
0.707106781186548,1.,1.,0.707106781186548,0.707106781186548,1.,      165P    222
1.,69.,65.,-140.,69.,-5.,-140.,69.,65.,-131.,69.,-5.,-131.,60.,      165P    223
65.,-131.,60.,-5.,-131.,51.,65.,-131.,51.,-5.,-131.,51.,65.,         165P    224
-140.,51.,-5.,-140.,51.,65.,-149.,51.,-5.,-149.,60.,65.,-149.,       165P    225
60.,-5.,-149.,69.,65.,-149.,69.,-5.,-149.,69.,65.,-140.,69.,-5.,     165P    226
-140.,0.,7.77777777777778,-3.14159265358979,3.14159265358979;        165P    227
128,1,8,1,2,0,1,0,0,1,0.,0.,7.77777777777778,7.77777777777778,       167P    228
-3.14159265358979,-3.14159265358979,-3.14159265358979,               167P    229
-1.5707963267949,-1.5707963267949,0.,0.,1.5707963267949,             167P    230
1.5707963267949,3.14159265358979,3.14159265358979,                   167P    231
3.14159265358979,1.,1.,0.707106781186548,0.707106781186548,1.,       167P    232
1.,0.707106781186548,0.707106781186548,1.,1.,0.707106781186548,      167P    233
0.707106781186548,1.,1.,0.707106781186548,0.707106781186548,1.,      167P    234
1.,29.,65.,-100.,29.,-5.,-100.,29.,65.,-91.,29.,-5.,-91.,20.,        167P    235
65.,-91.,20.,-5.,-91.,11.,65.,-91.,11.,-5.,-91.,11.,65.,-100.,       167P    236
11.,-5.,-100.,11.,65.,-109.,11.,-5.,-109.,20.,65.,-109.,20.,-5.,     167P    237
-109.,29.,65.,-109.,29.,-5.,-109.,29.,65.,-100.,29.,-5.,-100.,       167P    238
0.,7.77777777777778,-3.14159265358979,3.14159265358979;              167P    239
128,1,8,1,2,0,1,0,0,1,0.,0.,7.77777777777778,7.77777777777778,       169P    240
-3.14159265358979,-3.14159265358979,-3.14159265358979,               169P    241
-1.5707963267949,-1.5707963267949,0.,0.,1.5707963267949,             169P    242
1.5707963267949,3.14159265358979,3.14159265358979,                   169P    243
3.14159265358979,1.,1.,0.707106781186548,0.707106781186548,1.,       169P    244
1.,0.707106781186548,0.707106781186548,1.,1.,0.707106781186548,      169P    245
0.707106781186548,1.,1.,0.707106781186548,0.707106781186548,1.,      169P    246
1.,29.,65.,-20.,29.,-5.,-20.,29.,65.,-11.,29.,-5.,-11.,20.,65.,      169P    247
-11.,20.,-5.,-11.,11.,65.,-11.,11.,-5.,-11.,11.,65.,-20.,11.,        169P    248
-5.,-20.,11.,65.,-29.,11.,-5.,-29.,20.,65.,-29.,20.,-5.,-29.,        169P    249
29.,65.,-29.,29.,-5.,-29.,29.,65.,-20.,29.,-5.,-20.,0.,              169P    250
7.77777777777778,-3.14159265358979,3.14159265358979;                 169P    251
128,1,8,1,2,0,1,0,0,1,0.,0.,7.77777777777778,7.77777777777778,       171P    252
-3.14159265358979,-3.14159265358979,-3.14159265358979,               171P    253
-1.5707963267949,-1.5707963267949,0.,0.,1.5707963267949,             171P    254
1.5707963267949,3.14159265358979,3.14159265358979,                   171P    255
3.14159265358979,1.,1.,0.707106781186548,0.707106781186548,1.,       171P    256
1.,0.707106781186548,0.707106781186548,1.,1.,0.707106781186548,      171P    257
0.707106781186548,1.,1.,0.707106781186548,0.707106781186548,1.,      171P    258
1.,29.,65.,-140.,29.,-5.,-140.,29.,65.,-131.,29.,-5.,-131.,20.,      171P    259
65.,-131.,20.,-5.,-131.,11.,65.,-131.,11.,-5.,-131.,11.,65.,         171P    260
-140.,11.,-5.,-140.,11.,65.,-149.,11.,-5.,-149.,20.,65.,-149.,       171P    261
20.,-5.,-149.,29.,65.,-149.,29.,-5.,-149.,29.,65.,-140.,29.,-5.,     171P    262
-140.,0.,7.77777777777778,-3.14159265358979,3.14159265358979;        171P    263
128,1,8,1,2,0,1,0,0,1,0.,0.,7.77777777777778,7.77777777777778,       173P    264
-3.14159265358979,-3.14159265358979,-3.14159265358979,               173P    265
-1.5707963267949,-1.5707963267949,0.,0.,1.5707963267949,             173P    266
1.5707963267949,3.14159265358979,3.14159265358979,                   173P    267
3.14159265358979,1.,1.,0.707106781186548,0.707106781186548,1.,       173P    268
1.,0.707106781186548,0.707106781186548,1.,1.,0.707106781186548,      173P    269
0.707106781186548,1.,1.,0.707106781186548,0.707106781186548,1.,      173P    270
1.,69.,65.,-60.,69.,-5.,-60.,69.,65.,-51.,69.,-5.,-51.,60.,65.,      173P    271
-51.,60.,-5.,-51.,51.,65.,-51.,51.,-5.,-51.,51.,65.,-60.,51.,        173P    272
-5.,-60.,51.,65.,-69.,51.,-5.,-69.,60.,65.,-69.,60.,-5.,-69.,        173P    273
69.,65.,-69.,69.,-5.,-69.,69.,65.,-60.,69.,-5.,-60.,0.,              173P    274
7.77777777777778,-3.14159265358979,3.14159265358979;                 173P    275
128,1,8,1,2,0,1,0,0,1,0.,0.,7.77777777777778,7.77777777777778,       175P    276
-3.14159265358979,-3.14159265358979,-3.14159265358979,               175P    277
-1.5707963267949,-1.5707963267949,0.,0.,1.5707963267949,             175P    278
1.5707963267949,3.14159265358979,3.14159265358979,                   175P    279
3.14159265358979,1.,1.,0.707106781186548,0.707106781186548,1.,       175P    280
1.,0.707106781186548,0.707106781186548,1.,1.,0.707106781186548,      175P    281
0.707106781186548,1.,1.,0.707106781186548,0.707106781186548,1.,      175P    282
1.,29.,65.,-60.,29.,-5.,-60.,29.,65.,-51.,29.,-5.,-51.,20.,65.,      175P    283
-51.,20.,-5.,-51.,11.,65.,-51.,11.,-5.,-51.,11.,65.,-60.,11.,        175P    284
-5.,-60.,11.,65.,-69.,11.,-5.,-69.,20.,65.,-69.,20.,-5.,-69.,        175P    285
29.,65.,-69.,29.,-5.,-69.,29.,65.,-60.,29.,-5.,-60.,0.,              175P    286
7.77777777777778,-3.14159265358979,3.14159265358979;                 175P    287
128,1,8,1,2,0,1,0,0,1,0.,0.,7.77777777777778,7.77777777777778,       177P    288
-3.14159265358979,-3.14159265358979,-3.14159265358979,               177P    289
-1.5707963267949,-1.5707963267949,0.,0.,1.5707963267949,             177P    290
1.5707963267949,3.14159265358979,3.14159265358979,                   177P    291
3.14159265358979,1.,1.,0.707106781186548,0.707106781186548,1.,       177P    292
1.,0.707106781186548,0.707106781186548,1.,1.,0.707106781186548,      177P    293
0.707106781186548,1.,1.,0.707106781186548,0.707106781186548,1.,      177P    294
1.,69.,65.,-20.,69.,-5.,-20.,69.,65.,-11.,69.,-5.,-11.,60.,65.,      177P    295
-11.,60.,-5.,-11.,51.,65.,-11.,51.,-5.,-11.,51.,65.,-20.,51.,        177P    296
-5.,-20.,51.,65.,-29.,51.,-5.,-29.,60.,65.,-29.,60.,-5.,-29.,        177P    297
69.,65.,-29.,69.,-5.,-29.,69.,65.,-20.,69.,-5.,-20.,0.,              177P    298
7.77777777777778,-3.14159265358979,3.14159265358979;                 177P    299
128,1,8,1,2,0,1,0,0,1,0.,0.,7.77777777777778,7.77777777777778,       179P    300
-3.14159265358979,-3.14159265358979,-3.14159265358979,               179P    301
-1.5707963267949,-1.5707963267949,0.,0.,1.5707963267949,             179P    302
1.5707963267949,3.14159265358979,3.14159265358979,                   179P    303
3.14159265358979,1.,1.,0.707106781186548,0.707106781186548,1.,       179P    304
1.,0.707106781186548,0.707106781186548,1.,1.,0.707106781186548,      179P    305
0.707106781186548,1.,1.,0.707106781186548,0.707106781186548,1.,      179P    306
1.,69.,65.,-100.,69.,-5.,-100.,69.,65.,-91.,69.,-5.,-91.,60.,        179P    307
65.,-91.,60.,-5.,-91.,51.,65.,-91.,51.,-5.,-91.,51.,65.,-100.,       179P    308
51.,-5.,-100.,51.,65.,-109.,51.,-5.,-109.,60.,65.,-109.,60.,-5.,     179P    309
-109.,69.,65.,-109.,69.,-5.,-109.,69.,65.,-100.,69.,-5.,-100.,       179P    310
0.,7.77777777777778,-3.14159265358979,3.14159265358979;              179P    311
128,1,1,1,1,0,0,1,0,0,-0.001,-0.001,8.401,8.401,-0.001,-0.001,       181P    312
16.001,16.001,1.,1.,1.,1.,82.01,-5.,0.01,-2.00999999999999,-5.,      181P    313
0.01,82.01,-5.,-160.01,-2.00999999999999,-5.,-160.01,-0.001,         181P    314
8.401,-0.001,16.001;                                                 181P    315
128,1,1,1,1,0,0,1,0,0,-0.001,-0.001,7.001,7.001,-0.001,-0.001,       183P    316
16.001,16.001,1.,1.,1.,1.,82.,65.01,0.01,82.,-5.01,0.01,82.,         183P    317
65.01,-160.01,82.,-5.01,-160.01,-0.001,7.001,-0.001,16.001;          183P    318
128,1,1,1,1,0,0,1,0,0,-0.00100000000000089,-0.00100000000000089,     185P    319
8.401,8.401,-0.001,-0.001,16.001,16.001,1.,1.,1.,1.,-2.01,65.,       185P    320
0.01,82.01,65.,0.01,-2.01,65.,-160.01,82.01,65.,-160.01,             185P    321
-0.00100000000000089,8.401,-0.001,16.001;                            185P    322
128,1,1,1,1,0,0,1,0,0,-0.001,-0.001,7.001,7.001,-0.001,-0.001,       187P    323
16.001,16.001,1.,1.,1.,1.,-2.,-5.01,0.01,-2.,65.01,0.01,-2.,         187P    324
-5.01,-160.01,-2.,65.01,-160.01,-0.001,7.001,-0.001,16.001;          187P    325
128,1,1,1,1,0,0,1,0,0,-4.201,-4.201,4.201,4.201,-3.501,-3.501,       189P    326
3.501,3.501,1.,1.,1.,1.,-2.01,-5.01,0.,82.01,-5.01,0.,-2.01,         189P    327
65.01,0.,82.01,65.01,0.,-4.201,4.201,-3.501,3.501;                   189P    328
128,1,1,1,1,0,0,1,0,0,-4.201,-4.201,4.201,4.201,-3.501,-3.501,       191P    329
3.501,3.501,1.,1.,1.,1.,82.01,-5.01,-160.,-2.01000000000001,         191P    330
-5.01,-160.,82.01,65.01,-160.,-2.01000000000001,65.01,-160.,         191P    331
-4.201,4.201,-3.501,3.501;                                           191P    332
502,24,69.,-5.,-140.,69.,65.,-140.,29.,-5.,-100.,29.,65.,-100.,      193P    333
29.,-5.,-20.,29.,65.,-20.,29.,-5.,-140.,29.,65.,-140.,69.,-5.,       193P    334
-60.,69.,65.,-60.,29.,-5.,-60.,29.,65.,-60.,69.,-5.,-20.,69.,        193P    335
65.,-20.,69.,-5.,-100.,69.,65.,-100.,-2.,-5.,0.,82.,-5.,0.,-2.,      193P    336
-5.,-160.,82.,-5.,-160.,82.,65.,0.,82.,65.,-160.,-2.,65.,0.,-2.,     193P    337
65.,-160.;                                                           193P    338
504,36,93,193,1,193,1,95,193,1,193,2,97,193,2,193,2,99,193,3,        195P    339
193,3,101,193,3,193,4,103,193,4,193,4,105,193,5,193,5,107,193,5,     195P    340
193,6,109,193,6,193,6,111,193,7,193,7,113,193,7,193,8,115,193,8,     195P    341
193,8,117,193,9,193,9,119,193,9,193,10,121,193,10,193,10,123,        195P    342
193,11,193,11,125,193,11,193,12,127,193,12,193,12,129,193,13,        195P    343
193,13,131,193,13,193,14,133,193,14,193,14,135,193,15,193,15,        195P    344
137,193,15,193,16,139,193,16,193,16,141,193,17,193,18,143,193,       195P    345
17,193,19,145,193,20,193,19,147,193,18,193,20,149,193,18,193,21,     195P    346
151,193,22,193,20,153,193,21,193,22,155,193,21,193,23,157,193,       195P    347
24,193,22,159,193,23,193,24,161,193,23,193,17,163,193,19,193,24;     195P    348
406,1,5HBody1;                                                       197P    349
314,62.7450980392157,62.7450980392157,62.7450980392157,13HSteel      199P    350
- Satin;                                                             199P    351
S      1G      3D    200P    351                                        T      1
